<svg xmlns="http://www.w3.org/2000/svg" xmlns:xlink="http://www.w3.org/1999/xlink" viewBox="0 0 523.11 604.16"><defs><style>.cls-1{fill:url(#linear-gradient);}.cls-2{fill:url(#linear-gradient-2);}.cls-3{fill:url(#linear-gradient-3);}.cls-4{fill:url(#linear-gradient-4);}.cls-5{fill:url(#linear-gradient-5);}.cls-6{fill:url(#linear-gradient-6);}.cls-7{fill:url(#linear-gradient-7);}.cls-8{fill:url(#linear-gradient-8);}.cls-9{fill:url(#linear-gradient-9);}.cls-10{fill:url(#linear-gradient-10);}.cls-11{fill:url(#linear-gradient-11);}.cls-12{fill:url(#linear-gradient-12);}.cls-13{fill:url(#linear-gradient-13);}.cls-14{fill:url(#linear-gradient-14);}</style><linearGradient id="linear-gradient" x1="32.59" y1="508.91" x2="139.48" y2="110" gradientTransform="translate(-0.22 -0.22)" gradientUnits="userSpaceOnUse"><stop offset="0" stop-color="#ff7b00"/><stop offset="1" stop-color="#ffd623"/></linearGradient><linearGradient id="linear-gradient-2" x1="389.62" y1="499.87" x2="431.62" y2="261.68" gradientTransform="translate(-0.22 -0.22)" gradientUnits="userSpaceOnUse"><stop offset="0" stop-color="#ff8200"/><stop offset="1" stop-color="#ffd509"/></linearGradient><linearGradient id="linear-gradient-3" x1="276.86" y1="321.05" x2="356.05" y2="25.5" gradientTransform="translate(-0.22 -0.22)" gradientUnits="userSpaceOnUse"><stop offset="0" stop-color="#ff7900"/><stop offset="0.58" stop-color="#ffb807"/><stop offset="0.96" stop-color="#ffdd0b"/></linearGradient><linearGradient id="linear-gradient-4" x1="249.6" y1="601.13" x2="300.67" y2="410.55" gradientTransform="translate(-0.22 -0.22)" gradientUnits="userSpaceOnUse"><stop offset="0" stop-color="#fc7200"/><stop offset="1" stop-color="#ffd308"/></linearGradient><linearGradient id="linear-gradient-5" x1="122.61" y1="185.29" x2="122.61" y2="97.55" gradientTransform="translate(-0.22 -0.22)" gradientUnits="userSpaceOnUse"><stop offset="0" stop-color="#ffde0b"/><stop offset="1" stop-color="#ffe90e"/></linearGradient><linearGradient id="linear-gradient-6" x1="173.12" y1="250.84" x2="219.63" y2="170.27" gradientTransform="translate(-0.22 -0.22)" gradientUnits="userSpaceOnUse"><stop offset="0" stop-color="#ff9a03"/><stop offset="1" stop-color="#ffaf04"/></linearGradient><linearGradient id="linear-gradient-7" x1="406.8" y1="366.76" x2="487.6" y2="226.82" gradientTransform="translate(-0.22 -0.22)" gradientUnits="userSpaceOnUse"><stop offset="0" stop-color="#ff4700"/><stop offset="1" stop-color="#ff7a01"/></linearGradient><linearGradient id="linear-gradient-8" x1="109.74" y1="163.44" x2="371.19" y2="163.44" gradientTransform="translate(-0.22 -0.22)" gradientUnits="userSpaceOnUse"><stop offset="0" stop-color="#ffa202"/><stop offset="1" stop-color="#ff6f02"/></linearGradient><linearGradient id="linear-gradient-9" x1="109.74" y1="81.25" x2="523.17" y2="81.25" gradientTransform="translate(-0.22 -0.22)" gradientUnits="userSpaceOnUse"><stop offset="0" stop-color="#ffdb0a"/><stop offset="1" stop-color="#ffeb0e"/></linearGradient><linearGradient id="linear-gradient-10" x1="76.21" y1="442.11" x2="76.21" y2="540.96" gradientTransform="translate(-0.22 -0.22)" gradientUnits="userSpaceOnUse"><stop offset="0" stop-color="#ff5b00"/><stop offset="1" stop-color="#ff4b00"/></linearGradient><linearGradient id="linear-gradient-11" x1="291.19" y1="516.63" x2="291.19" y2="375.18" gradientTransform="translate(-0.22 -0.22)" gradientUnits="userSpaceOnUse"><stop offset="0" stop-color="#ffd308"/><stop offset="1" stop-color="#ffe90e"/></linearGradient><linearGradient id="linear-gradient-12" x1="341.98" y1="456.06" x2="464.48" y2="243.88" gradientTransform="translate(-0.22 -0.22)" gradientUnits="userSpaceOnUse"><stop offset="0" stop-color="#ffbd00"/><stop offset="1" stop-color="#ffe90e"/></linearGradient><linearGradient id="linear-gradient-13" x1="316.32" y1="485.11" x2="490.14" y2="384.75" gradientTransform="translate(-0.22 -0.22)" gradientUnits="userSpaceOnUse"><stop offset="0" stop-color="#ff5300"/><stop offset="1" stop-color="#ff7002"/></linearGradient><linearGradient id="linear-gradient-14" x1="168.69" y1="560.51" x2="413.69" y2="560.51" gradientTransform="translate(-0.22 -0.22)" gradientUnits="userSpaceOnUse"><stop offset="0" stop-color="#ff4800"/><stop offset="1" stop-color="#ff9703"/></linearGradient></defs><title>rexsdev</title><g id="Layer_2" data-name="Layer 2"><polygon class="cls-1" points="151.97 365.25 151.97 238.85 245 185.14 93.03 97.39 0 151.1 0 453 151.97 540.74 151.97 365.25"/><polygon class="cls-2" points="371.13 365.38 278.1 419.08 430.08 506.83 523.11 453.12 523.11 277.63 371.13 365.38"/><polygon class="cls-3" points="261.5 175.49 370.97 238.69 370.97 346.11 522.95 258.37 522.95 150.95 261.5 0 109.52 87.74 261.5 175.49"/><polygon class="cls-4" points="261.5 428.67 168.47 374.96 168.47 550.45 261.5 604.16 413.47 516.41 261.5 428.67"/></g><g id="Layer_4" data-name="Layer 4"><polygon class="cls-5" points="244.89 185.07 93.03 97.39 92.92 97.33 -0.11 151.04 -0.11 162.15 92.92 108.44 225.65 185.07 244.89 185.07"/><polygon class="cls-6" points="152.04 238.58 245.07 184.87 225.83 184.87 152.04 227.47 152.04 238.58"/><polygon class="cls-7" points="370.99 334.88 370.99 346 522.97 258.25 522.97 247.14 370.99 334.88"/><polygon class="cls-8" points="128.77 87.74 109.52 87.74 370.97 238.69 370.97 227.58 128.77 87.74"/><polygon class="cls-9" points="522.95 150.95 261.5 0 251.88 5.56 251.88 5.56 109.52 87.74 128.77 87.74 261.5 11.11 522.95 162.06 522.95 150.95"/><polygon class="cls-10" points="151.97 529.63 0 441.89 0 453 151.97 540.74 151.97 529.63"/><polygon class="cls-11" points="413.47 516.41 168.47 374.96 168.47 386.07 394.23 516.41 413.47 516.41"/><polygon class="cls-12" points="278.1 419.08 523.11 277.63 523.11 288.74 297.35 419.08 278.1 419.08"/><polygon class="cls-13" points="523.11 442.01 430.08 495.72 297.35 419.08 278.1 419.08 430.08 506.83 439.7 501.27 439.7 501.27 523.11 453.12 523.11 442.01"/><polygon class="cls-14" points="394.23 516.41 261.5 593.05 168.47 539.34 168.47 550.45 251.88 598.6 251.88 598.6 261.5 604.16 413.47 516.41 394.23 516.41"/></g></svg>